<?xml version="1.0" standalone="no"?>
<!DOCTYPE svg PUBLIC "-//W3C//DTD SVG 20010904//EN"
 "http://www.w3.org/TR/2001/REC-SVG-20010904/DTD/svg10.dtd">
<svg version="1.0" xmlns="http://www.w3.org/2000/svg"
 width="800.000000pt" height="800.000000pt" viewBox="0 0 800.000000 800.000000"
 preserveAspectRatio="xMidYMid meet">
<metadata>
Created by potrace 1.14, written by Peter Selinger 2001-2017
</metadata>
<g transform="translate(0.000000,800.000000) scale(0.100000,-0.100000)"
fill="#000000" stroke="none">
<path d="M2409 7416 c-2 -2 -33 -7 -68 -10 -36 -4 -68 -9 -71 -11 -4 -3 -23
-6 -42 -9 -50 -6 -171 -41 -260 -75 -215 -83 -406 -207 -563 -366 -96 -97
-145 -153 -145 -165 0 -4 -4 -10 -8 -12 -8 -3 -102 -134 -102 -142 0 -2 -15
-30 -33 -63 -65 -115 -124 -269 -158 -413 -16 -68 -18 -81 -25 -135 -3 -27 -8
-63 -10 -80 -6 -50 -6 -247 0 -302 10 -89 15 -125 20 -142 3 -9 7 -32 10 -51
7 -48 44 -172 53 -181 5 -4 33 -9 63 -10 30 -1 67 -6 82 -10 14 -4 29 -5 32
-2 3 3 -4 28 -14 57 -102 274 -111 616 -23 906 9 30 17 58 17 62 1 3 4 10 9
14 4 4 7 14 7 22 0 25 99 220 147 290 77 111 112 153 207 247 214 210 509 358
801 401 68 10 367 11 439 1 356 -49 708 -255 944 -552 46 -58 142 -210 142
-224 0 -25 26 -19 85 20 36 24 65 47 65 51 0 16 -62 120 -120 202 -155 218
-390 415 -630 528 -70 33 -238 95 -278 103 -10 1 -35 8 -57 14 -22 6 -58 13
-80 16 -22 4 -51 9 -65 12 -31 6 -364 15 -371 9z"/>
<path d="M2457 7004 c-1 -1 -29 -6 -62 -9 -252 -29 -501 -151 -690 -339 -140
-139 -222 -261 -288 -426 -28 -71 -61 -189 -72 -260 -11 -64 -13 -309 -4 -345
4 -16 10 -48 13 -70 11 -79 46 -186 103 -307 37 -80 48 -89 125 -103 13 -3 53
-13 91 -24 37 -11 67 -18 67 -16 0 2 -20 33 -45 69 -89 127 -153 280 -180 431
-14 77 -14 297 -1 355 3 14 8 36 11 49 15 76 52 177 92 256 56 108 222 315
253 315 5 0 10 4 10 9 0 13 154 115 220 145 77 35 160 67 160 61 0 -3 8 -1 18
4 9 5 35 12 57 16 22 3 62 10 88 14 66 11 322 4 322 -9 0 -1 9 -3 20 -5 110
-16 268 -81 381 -158 132 -88 262 -229 333 -362 18 -33 35 -62 37 -64 2 -2 23
13 48 33 24 20 49 36 54 36 5 0 15 7 22 15 23 28 -88 199 -214 328 -182 185
-455 322 -703 353 -49 6 -261 12 -266 8z"/>
<path d="M4725 6699 c-18 -7 -17 -8 6 -8 15 -1 55 -10 90 -21 178 -57 309
-155 416 -310 164 -240 138 -493 -94 -903 -25 -45 -49 -84 -52 -87 -3 -3 -12
-16 -20 -30 -7 -14 -43 -67 -80 -119 -36 -51 -73 -103 -81 -115 -36 -53 -302
-387 -343 -431 -11 -11 -31 -36 -45 -55 -15 -19 -30 -37 -33 -40 -5 -4 -232
-268 -284 -329 -11 -13 -25 -29 -30 -35 -6 -6 -37 -42 -70 -81 -33 -38 -62
-72 -65 -75 -3 -3 -41 -48 -85 -100 -44 -52 -82 -97 -86 -100 -3 -3 -39 -45
-79 -95 -41 -49 -81 -99 -91 -110 -51 -57 -264 -340 -354 -470 -34 -50 -105
-158 -105 -160 0 -2 -19 -36 -43 -77 -40 -68 -94 -176 -131 -259 -57 -130
-159 -480 -182 -623 -3 -21 -8 -48 -10 -60 -2 -11 -7 -37 -9 -56 -3 -19 -7
-44 -10 -55 -18 -86 -25 -400 -12 -545 5 -64 20 -154 42 -261 9 -45 65 -222
80 -255 8 -17 19 -42 25 -55 7 -18 8 -5 4 51 -6 88 -6 517 1 605 2 33 7 102
10 153 3 51 8 100 9 110 2 9 7 51 11 92 l7 75 684 685 c731 733 713 714 808
835 151 192 215 357 192 495 -17 100 -103 206 -228 282 -29 17 -55 33 -57 35
-2 1 25 33 61 70 108 111 140 145 217 234 40 46 83 95 95 109 182 207 399 506
520 719 181 316 258 555 251 779 -1 59 -8 123 -15 142 -54 161 -155 272 -312
344 -74 34 -257 85 -326 91 -64 5 -167 17 -172 20 -3 1 -14 -1 -25 -6z"/>
<path d="M2537 6514 c-1 -1 -31 -4 -67 -8 -205 -19 -407 -143 -524 -321 -29
-44 -47 -78 -76 -150 -25 -59 -42 -149 -44 -225 l-2 -55 -59 -23 c-86 -32 -88
-34 -112 -81 -20 -39 -21 -46 -8 -80 7 -20 25 -70 40 -111 42 -116 55 -140 86
-155 42 -22 65 -19 193 28 101 37 115 45 102 56 -9 8 -16 20 -16 27 0 8 -3 14
-8 14 -14 0 -71 124 -91 196 -28 104 -24 279 8 349 5 11 21 47 36 80 118 255
417 401 696 339 56 -13 193 -71 224 -95 107 -86 204 -211 226 -293 6 -22 15
-48 19 -57 7 -14 13 -48 25 -144 1 -11 3 -23 4 -26 0 -4 56 14 123 40 125 48
154 69 161 121 5 29 2 40 -47 175 -58 159 -96 182 -223 135 l-59 -21 -65 63
c-82 82 -143 123 -243 165 -45 19 -82 34 -83 34 -2 -1 -5 0 -8 0 -3 1 -8 2
-12 3 -42 11 -189 26 -196 20z"/>
<path d="M3892 6314 c-49 -12 -113 -34 -143 -49 -55 -28 -161 -96 -156 -101 1
-2 23 2 47 8 52 13 327 17 383 6 66 -14 164 -65 215 -112 116 -109 145 -288
86 -521 -18 -70 -72 -212 -105 -276 -12 -24 -22 -46 -22 -49 0 -3 -11 -22 -23
-42 -13 -21 -24 -40 -24 -44 0 -3 -15 -29 -33 -57 -19 -29 -45 -70 -58 -92
-13 -22 -27 -44 -31 -50 -169 -228 -252 -335 -259 -335 -5 0 -9 -5 -9 -11 0
-6 -6 -16 -12 -23 -7 -7 -32 -35 -56 -63 l-43 -51 -47 14 c-26 8 -56 16 -67
19 -53 11 -66 14 -73 19 -5 3 -19 7 -33 10 -13 3 -60 14 -104 26 -78 21 -94
25 -135 34 -11 3 -24 7 -28 10 -5 3 -19 7 -33 10 -13 3 -85 21 -159 41 -146
40 -141 38 -185 49 -16 4 -37 10 -45 13 -8 4 -17 7 -20 8 -7 2 -84 18 -90 19
-3 1 -23 7 -45 14 -45 14 -497 135 -590 158 -70 17 -71 19 -54 38 8 9 25 30
39 48 13 18 56 64 95 102 38 38 66 67 60 65 -62 -27 -205 -139 -268 -210 -205
-232 -312 -577 -284 -909 17 -205 96 -271 272 -225 187 49 325 64 420 46 86
-16 192 -72 265 -141 l62 -58 121 -2 c67 0 140 -3 162 -5 22 -2 64 -7 93 -10
126 -13 261 -52 306 -88 85 -69 -75 -149 -349 -175 -91 -8 -434 -8 -505 1
-103 13 -115 15 -190 32 -145 33 -212 90 -159 137 45 38 108 59 183 58 71 0
82 -1 186 -15 61 -8 208 -51 228 -67 6 -6 12 -8 12 -4 0 4 -27 24 -61 46 -196
126 -410 136 -739 35 -47 -15 -89 -28 -95 -29 -5 -1 -28 -8 -50 -14 -22 -6
-42 -11 -45 -11 -3 0 -18 -5 -35 -11 -16 -6 -48 -14 -70 -17 -22 -3 -41 -6
-43 -8 -2 -2 18 -11 45 -20 446 -159 696 -314 832 -515 77 -114 101 -196 97
-325 -6 -160 -89 -323 -245 -482 -214 -217 -587 -424 -953 -529 -54 -15 -98
-33 -98 -40 0 -6 7 -30 15 -53 8 -23 14 -45 15 -49 1 -16 33 -108 41 -117 5
-5 9 -17 9 -27 0 -10 4 -26 9 -36 89 -180 116 -232 123 -232 4 0 8 -6 8 -14 0
-24 120 -134 176 -162 144 -70 334 -21 553 144 108 81 112 85 323 292 l177
175 -13 65 c-32 151 -41 245 -41 440 1 161 9 303 20 340 2 8 7 31 9 50 4 31
16 93 30 155 37 167 101 307 241 520 47 72 98 149 113 172 18 29 36 44 57 49
16 3 63 17 104 31 206 68 265 176 147 267 l-36 27 27 37 c16 20 30 39 33 42 3
3 65 86 139 185 74 99 138 182 143 183 4 2 8 10 8 17 0 7 4 15 8 17 5 2 42 48
82 103 41 55 80 106 87 113 7 7 13 17 13 22 0 5 6 15 13 22 54 55 487 698 487
723 0 3 12 24 27 48 14 23 48 85 74 137 185 372 210 591 87 773 -155 229 -393
325 -646 261z"/>
<path d="M2442 6256 c-166 -41 -307 -177 -355 -343 -22 -73 -19 -212 5 -280
29 -80 65 -138 119 -193 39 -39 127 -102 149 -106 3 0 12 -3 20 -7 166 -64
362 -30 497 88 154 135 208 351 135 542 -85 223 -338 356 -570 299z"/>
<path d="M3710 6086 c-3 -2 -30 -7 -60 -11 -30 -4 -58 -9 -63 -12 -8 -5 -4
-36 19 -143 6 -32 6 -247 -1 -280 -3 -14 -8 -38 -11 -55 -41 -232 -179 -465
-365 -615 -79 -63 -197 -139 -220 -139 -9 -1 -22 -8 -29 -16 -7 -8 -21 -15
-31 -15 -37 0 -18 -18 29 -29 26 -6 79 -20 117 -30 l70 -20 45 26 c25 15 47
29 50 32 3 3 23 19 45 36 229 168 419 485 463 771 12 84 6 373 -10 439 -13 53
-32 77 -48 61z"/>
<path d="M4005 6053 c2 -16 6 -48 10 -73 23 -155 8 -407 -35 -570 -38 -147
-115 -315 -203 -446 -68 -101 -90 -128 -199 -236 -49 -47 -88 -89 -88 -91 0
-3 21 -10 48 -16 77 -18 82 -20 91 -25 14 -9 42 24 181 209 88 119 200 281
200 291 0 2 16 29 36 60 66 103 101 201 128 354 23 137 26 432 4 478 -9 17
-36 39 -77 60 -81 40 -100 41 -96 5z"/>
<path d="M810 5118 c-19 -4 -47 -10 -61 -13 -92 -18 -190 -94 -234 -182 -64
-128 -67 -355 -9 -618 9 -38 17 -77 19 -85 2 -8 15 -59 30 -113 14 -53 28
-106 31 -117 7 -33 10 -46 68 -260 31 -113 65 -241 77 -285 12 -44 25 -91 29
-105 4 -14 18 -61 29 -105 53 -198 128 -481 192 -720 39 -143 82 -305 96 -359
l27 -99 -30 -24 c-128 -104 -388 -243 -639 -342 -72 -29 -137 -55 -145 -60 -9
-5 -30 -12 -48 -15 -17 -4 -34 -12 -37 -17 -4 -5 -12 -9 -20 -9 -8 0 -26 -5
-42 -12 -15 -6 -32 -12 -38 -14 -5 -1 -26 -10 -45 -19 -34 -15 -34 -16 -5 -10
17 4 39 9 50 11 59 11 96 20 265 61 690 166 1174 386 1440 653 79 80 170 211
170 245 0 7 4 16 9 19 5 3 12 23 16 43 5 21 10 45 13 53 2 8 5 51 6 95 3 84
-17 178 -55 264 -28 63 -121 197 -182 261 -67 72 -201 190 -215 190 -6 0 -12
3 -14 8 -7 16 -78 62 -96 62 -47 0 -125 35 -164 74 -62 61 -120 199 -135 317
-39 321 151 687 508 979 l106 87 -81 20 c-45 11 -160 41 -256 66 -97 25 -191
48 -210 51 -19 3 -46 8 -60 10 -112 20 -301 27 -360 14z"/>
<path d="M5345 3442 c-78 -8 -184 -44 -222 -76 -105 -87 -135 -162 -139 -354
-1 -74 -4 -135 -6 -138 -4 -3 -159 -16 -199 -15 -14 0 -16 -18 -16 -140 0
-120 2 -139 16 -140 9 -1 55 -2 103 -3 47 0 90 -4 94 -8 4 -5 7 -226 7 -493
l0 -485 233 0 c129 0 234 3 235 8 1 4 2 225 2 492 l2 485 163 0 162 0 0 147 0
148 -162 2 -163 3 1 86 c2 102 21 145 69 158 16 4 91 9 165 10 74 1 136 4 139
7 3 2 6 12 7 22 12 96 15 120 19 142 3 14 8 43 11 65 3 22 8 43 10 46 6 11
-39 19 -148 25 -118 7 -338 11 -383 6z"/>
<path d="M6737 2904 c-1 -1 -15 -5 -30 -8 -39 -7 -68 -16 -97 -29 -41 -18
-143 -80 -169 -102 -13 -11 -37 -32 -54 -47 -17 -14 -34 -25 -38 -22 -3 2 -10
23 -14 46 -4 24 -10 50 -12 58 -2 8 -5 26 -7 40 l-3 25 -187 3 c-145 2 -186 0
-187 -10 -1 -7 -2 -295 -3 -640 l-1 -628 236 0 237 0 0 418 c0 229 1 422 1
429 1 15 70 46 139 62 56 14 130 8 148 -12 26 -27 29 -89 29 -484 l0 -413 30
0 c172 -3 428 0 433 5 4 3 7 196 7 428 l0 421 66 28 c121 50 213 47 238 -8 8
-17 11 -155 11 -449 l0 -425 58 -1 c166 -1 405 1 409 4 9 10 2 1022 -8 1065
-15 67 -57 139 -103 175 -22 18 -43 32 -46 33 -3 0 -18 6 -33 12 -84 35 -263
36 -352 2 -86 -33 -187 -94 -237 -144 l-27 -27 -16 30 c-38 74 -115 134 -200
156 -29 8 -211 15 -218 9z"/>
<path d="M4121 2570 c-7 -4 -7 -517 -1 -545 1 -5 2 -18 1 -28 -1 -15 -5 -15
-40 8 -46 28 -140 62 -202 71 -24 4 -91 8 -149 9 -164 2 -267 -31 -348 -113
-40 -41 -92 -123 -98 -157 -1 -5 -9 -37 -18 -70 -29 -108 -40 -346 -23 -511
16 -153 76 -308 149 -384 45 -47 140 -96 203 -106 150 -22 331 11 437 82 43
27 128 112 128 126 0 5 4 7 9 4 5 -3 16 -46 26 -96 l17 -90 187 0 186 0 0 900
c1 609 -3 900 -10 901 -32 4 -448 3 -454 -1z m-91 -816 c30 -8 61 -16 68 -16
15 -2 14 21 16 -291 l1 -267 -50 -24 c-68 -33 -110 -43 -175 -41 -138 4 -172
75 -166 350 5 249 38 305 180 305 39 0 96 -7 126 -16z"/>
<path d="M4738 1528 c-13 -13 -18 -33 -18 -71 0 -77 18 -91 110 -85 48 2 74 8
80 18 12 20 7 127 -7 141 -6 6 -42 12 -79 13 -54 2 -71 -1 -86 -16z"/>
<path d="M5360 1310 c-44 -12 -116 -48 -130 -65 -19 -23 -28 -18 -36 20 -3 19
-11 35 -18 36 -17 1 -98 1 -123 0 l-23 -1 0 -264 0 -265 95 -3 c52 -2 96 -1
96 2 1 3 2 82 3 177 1 95 4 175 8 178 8 8 45 17 95 22 33 4 43 1 50 -14 5 -10
9 -96 8 -190 l-1 -173 98 0 98 0 0 213 c0 263 -7 290 -77 318 -34 14 -109 19
-143 9z"/>
<path d="M6630 1308 c-49 -12 -91 -33 -117 -57 l-22 -21 -10 37 -10 38 -58 -1
c-32 -1 -67 -2 -78 -3 -20 -1 -20 -8 -20 -363 l0 -363 98 -3 c112 -3 100 -20
97 137 -1 76 2 92 12 84 22 -18 91 -36 140 -38 132 -4 197 51 214 182 22 171
-17 317 -95 357 -35 18 -106 25 -151 14z m20 -151 c20 -16 23 -29 26 -122 4
-127 -12 -151 -99 -146 -64 3 -68 11 -66 135 1 106 2 114 22 124 51 25 94 28
117 9z"/>
<path d="M7135 1309 c-132 -29 -182 -104 -183 -274 0 -146 50 -230 158 -262
85 -25 258 -20 347 11 35 12 38 16 35 47 -9 86 -14 91 -70 85 -57 -7 -101 -8
-168 -7 -54 1 -98 29 -92 59 3 13 22 16 123 17 178 3 225 34 225 150 0 114
-81 175 -242 179 -51 2 -111 -1 -133 -5z m170 -139 c16 -13 10 -60 -9 -75 -12
-9 -57 -11 -133 -6 -6 1 -10 9 -8 19 2 9 4 23 4 30 1 6 9 20 20 31 21 21 101
22 126 1z"/>
<path d="M7882 1301 c-28 -10 -67 -30 -86 -45 l-36 -27 -6 31 c-4 17 -11 33
-17 37 -12 7 -135 8 -143 1 -5 -5 -6 -125 -4 -440 l0 -88 98 0 98 0 -1 171 c0
105 3 173 10 179 12 10 84 22 144 24 50 2 50 2 54 111 l2 59 -32 2 c-17 1 -54
-6 -81 -15z"/>
<path d="M4730 1300 c-4 -3 -7 -122 -6 -265 l1 -260 96 -3 96 -3 0 266 c1 190
-3 265 -11 266 -70 3 -170 3 -176 -1z"/>
<path d="M5650 1298 c0 -4 14 -31 31 -60 18 -29 44 -76 60 -105 16 -29 34 -61
40 -72 11 -16 6 -30 -31 -92 -24 -41 -50 -85 -58 -99 -7 -14 -22 -38 -32 -55
-10 -16 -19 -33 -19 -37 -1 -5 43 -8 97 -8 l97 0 21 43 c11 23 36 70 54 104
29 53 36 60 45 45 5 -9 31 -55 56 -102 l47 -85 101 -3 100 -3 -44 76 c-25 42
-45 78 -45 80 0 3 -8 14 -17 25 -10 11 -18 24 -18 28 0 4 -9 19 -19 34 l-18
27 53 93 c28 51 60 108 71 126 10 18 18 36 18 40 0 4 -40 7 -90 6 -86 -1 -128
-14 -114 -35 3 -5 1 -9 -3 -9 -5 0 -17 -20 -27 -45 -11 -25 -22 -45 -25 -45
-3 0 -12 -14 -20 -31 -7 -17 -17 -27 -21 -22 -4 4 -28 48 -53 97 l-45 89 -96
1 c-53 0 -96 -2 -96 -6z"/>
</g>
</svg>
